<svg class="icon" style="width: 1em;height: 1em;vertical-align: middle;fill: currentColor;overflow: hidden;" viewBox="0 0 1024 1024" version="1.1" xmlns="http://www.w3.org/2000/svg" p-id="16158"><path d="M512 224c-52.928 0-96-43.072-96-96s43.072-96 96-96 96 43.072 96 96-43.072 96-96 96z m0-128a32.032 32.032 0 0 0 0 64 32.032 32.032 0 0 0 0-64zM512 992a144.16 144.16 0 0 1-144-144 32 32 0 1 1 64 0c0 44.128 35.904 80 80 80s80-35.872 80-80a32 32 0 1 1 64 0c0 79.392-64.608 144-144 144z" p-id="16159"></path><path d="M779.968 760a32 32 0 0 1-31.424-26.08C736 666.976 736 576.16 736 480c0-186.624-60.704-256-224-256s-224 69.376-224 256c0 96.16 0 186.976-12.544 253.92a32 32 0 0 1-62.912-11.808C224 661.024 224 573.088 224 480 224 258.688 312.832 160 512 160s288 98.688 288 320c0 93.088 0 181.024 11.456 242.08a32 32 0 0 1-31.488 37.92z" p-id="16160"></path><path d="M816 864h-608C163.904 864 128 828.128 128 784S163.904 704 208 704h109.92a32 32 0 1 1 0 64H208a16 16 0 0 0 0 32h608a16 16 0 0 0 0-32h-115.232a32 32 0 1 1 0-64H816c44.096 0 80 35.872 80 80S860.096 864 816 864zM640 512a32 32 0 0 1-32-32c0-116.448-27.776-128-96-128a32 32 0 1 1 0-64c115.136 0 160 53.856 160 192a32 32 0 0 1-32 32z" p-id="16161"></path></svg>
