<svg><path d="M878.592 198.656H147.456c-12.288 0-22.528 10.24-22.528 22.528v602.112c0 6.144 2.048 12.288 6.144 16.384 4.096 4.096 10.24 6.144 16.384 6.144h731.136c6.144 0 12.288-2.048 16.384-6.144 4.096-4.096 6.144-10.24 6.144-16.384V219.136c0-6.144-2.048-12.288-6.144-16.384-4.096-2.048-10.24-4.096-16.384-4.096z m-696.32 55.296h161.792v534.528H182.272V253.952z m663.552 534.528H399.36V253.952h446.464v534.528z m0 0" fill="#BBBBBB" p-id="8103"></path><path d="M514.048 356.352h206.848v55.296H514.048v-55.296z m0 145.408h206.848v55.296H514.048v-55.296z m0 145.408h206.848v55.296H514.048v-55.296z m0 0"></path></svg>