<svg class="icon" style="width: 1em;height: 1em;vertical-align: middle;fill: currentColor;overflow: hidden;" viewBox="0 0 1024 1024" version="1.1" xmlns="http://www.w3.org/2000/svg" p-id="4369"><path d="M184.6 339.7L64.3 681.5h53.1l25.4-76.4h125.5l25.6 76.4h52.9L226.6 339.7h-42z m-27.2 219.4l47.9-149.5h0.9l47.9 149.5h-96.7z m362.3 24.1c0 16.4-4.4 29.3-13.2 38.5-8.6 9.2-19.8 13.8-33.4 13.8-13.6 0-24.8-4.6-33.6-13.8-8.9-9.2-13.4-22.1-13.4-38.5v-145h-47.3v161.9c0.3 27.4 9 48.2 26.1 62.2 15.7 14.3 33.3 21.7 52.9 22 25.1 0 45.4-9.6 61-28.8h0.9v26H567V438.2h-47.3v145z m169-219.1h-47.3v74.1h-23.7v37.5h23.7v145.9c0 19.2 5.4 33.9 16.3 44 10.6 10.6 24.2 15.9 40.8 15.9h24.7v-45.9h-17.7c-11.5 0.3-17.1-5.7-16.8-18v-142h34.5v-37.5h-34.5v-74z m266.1 135.4c-3.9-13.4-10.6-24.8-19.9-34-6.2-8.1-15-15.4-26.3-21.8-11.5-6.1-26.6-9.3-45.2-9.6-18 0.3-32.8 3.5-44.3 9.6-11.7 6.4-20.7 13.6-27.2 21.7-8.8 9.2-15.3 20.6-19.5 34-4.1 13.8-6.1 33.5-6.1 59.2 0 25.6 2 45.2 6.1 58.6 4.2 13.4 10.7 25.1 19.5 34.9 6.5 7.7 15.6 14.5 27.2 20.6 11.5 6.7 26.2 10.2 44.3 10.5 18.6-0.3 33.7-3.8 45.2-10.5 6.2-2.8 11.3-6.2 15.2-10.1 4.4-3.4 8.1-7 11.1-10.5 9.4-9.8 16-21.5 20-34.9 3.8-13.4 5.7-33 5.7-58.6-0.2-25.6-2.1-45.3-5.8-59.1z m-43.9 96.2c-1.5 8-4.6 15.1-9.3 21.2-3.5 4.7-8.6 8.9-15.5 12.5-6.5 3.4-14.1 5.2-22.8 5.2-8 0-15.5-1.7-22.3-5.2-6.5-3.6-11.8-7.8-15.9-12.5-4.1-6.1-7.1-13.2-8.9-21.2-1.8-7.8-2.7-20.2-2.7-37.2 0-17.1 0.9-29.6 2.7-37.6 1.8-7.7 4.8-14.4 8.9-20.2 4.1-5.5 9.4-9.8 15.9-12.9 6.8-3.3 14.3-4.9 22.3-4.9 8.6 0 16.2 1.6 22.8 4.9 6.8 3.1 12 7.4 15.5 12.9 4.7 5.8 7.8 12.5 9.3 20.2 1.5 8 2.3 20.7 2.3 38.1-0.1 16.7-0.8 28.9-2.3 36.7z" p-id="4370"></path></svg>