<svg class="icon" style="width: 1em;height: 1em;vertical-align: middle;fill: currentColor;overflow: hidden;" viewBox="0 0 1024 1024" version="1.1" xmlns="http://www.w3.org/2000/svg" p-id="24908"><path d="M800 256h-64a32 32 0 0 0-31.84-32H159.84C142.4 224 128 238.432 128 256.224v415.552A32 32 0 0 0 159.84 704H160v64H128c-35.328 0-64-28.48-64-63.904V223.904C64 188.608 92.864 160 128 160h608c35.328 0 64 28.48 64 63.904V256zM192 351.84A64 64 0 0 1 256.16 288h639.68A64 64 0 0 1 960 351.84v448.32A64 64 0 0 1 895.84 864H256.16A64 64 0 0 1 192 800.16v-448.32z m64 32.384v383.552A31.968 31.968 0 0 0 287.744 800h576.512c17.184 0 31.744-14.4 31.744-32.224V384.224A31.968 31.968 0 0 0 864.256 352H287.744C270.56 352 256 366.4 256 384.224z m219.232 238.4c0 12.16-1.92 23.168-5.76 32.96-3.808 9.792-9.12 18.048-15.872 24.8-6.752 6.72-14.592 11.904-23.52 15.488a76.064 76.064 0 0 1-28.576 5.344H320V448h72.384c8.576 0 16.64 1.6 24.192 4.768 7.552 3.2 14.24 7.616 20.128 13.28 5.856 5.696 10.464 12.704 13.856 21.056a73.824 73.824 0 0 1 3.872 39.872c-0.768 4.256-1.92 8.288-3.36 12.128-1.472 3.84-3.328 7.328-5.6 10.496a27.776 27.776 0 0 1-7.776 7.552c4.512 1.6 9.024 4.48 13.536 8.736 4.48 4.224 8.576 9.28 12.16 15.072a80.736 80.736 0 0 1 11.84 41.664z m-50.72 0c0-11.104-3.264-19.36-9.824-24.8a33.568 33.568 0 0 0-21.984-8.128h-25.024v65.472h25.024c4.064 0 8-0.64 11.84-1.984a29.184 29.184 0 0 0 10.144-5.952 29.28 29.28 0 0 0 7.104-10.112c1.824-4.096 2.72-8.928 2.72-14.496z m-16.576-103.584c0-9.28-2.432-15.872-7.264-19.84a25.216 25.216 0 0 0-16.416-5.952h-16.576v51.2h16.576c6.08 0 11.552-1.92 16.416-5.76 4.832-3.84 7.264-10.368 7.264-19.648z m166.528-21.824v204h-52.064v-204.384h-65.28V448h182.304v49.216h-64.96zM792.16 704l-78.336-143.424v140.64H661.44V448h42.272l75.904 128v-128H832v256h-39.84z" fill="#333333" p-id="24909"></path></svg>