<svg class="icon" style="width: 1em;height: 1em;vertical-align: middle;fill: currentColor;overflow: hidden;" viewBox="0 0 1024 1024" version="1.1" xmlns="http://www.w3.org/2000/svg" p-id="3219"><path d="M832 128a128 128 0 0 1 128 128v512a128 128 0 0 1-128 128H192a128 128 0 0 1-128-128V256a128 128 0 0 1 128-128h640z m64 256H128v384a64 64 0 0 0 60.245333 63.893333L192 832h640a64 64 0 0 0 63.893333-60.245333L896 768V384zM354.133333 682.666667c4.693333 0 8.533333 3.84 8.533334 8.533333v46.933333a8.533333 8.533333 0 0 1-8.533334 8.533334h-132.266666a8.533333 8.533333 0 0 1-8.533334-8.533334v-46.933333c0-4.693333 3.84-8.533333 8.533334-8.533333h132.266666zM832 192H192a64 64 0 0 0-63.893333 60.245333L128 256v64h768v-64a64 64 0 0 0-60.245333-63.893333L832 192z" fill="#333333" p-id="3220"></path></svg>