<svg class="icon" style="width: 1em;height: 1em;vertical-align: middle;fill: currentColor;overflow: hidden;" viewBox="0 0 1024 1024" version="1.1" xmlns="http://www.w3.org/2000/svg" p-id="6448"><path d="M509.347 702.054c-10.304-0.33-20.393-5.06-27.236-13.82L285.099 436.072c-12.24-15.667-9.463-38.291 6.205-50.532 15.667-12.24 38.291-9.463 50.532 6.205l170.001 217.592 169.869-217.422c12.24-15.667 34.865-18.445 50.532-6.204 15.667 12.24 18.445 34.865 6.205 50.532L541.43 688.405c-7.916 10.132-20.173 14.873-32.084 13.65zM512 996C244.694 996 28 779.306 28 512 28 244.694 244.694 28 512 28c267.306 0 484 216.694 484 484 0 267.306-216.694 484-484 484z m0-72c227.541 0 412-184.459 412-412S739.541 100 512 100 100 284.459 100 512s184.459 412 412 412z" fill="#000000" p-id="6449"></path></svg>