<svg class="icon" style="width: 1em;height: 1em;vertical-align: middle;fill: currentColor;overflow: hidden;" viewBox="0 0 1024 1024" version="1.1" xmlns="http://www.w3.org/2000/svg" p-id="14548"><path d="M480 873.088V832a32 32 0 0 1 64 0v41.088c151.189333-15.018667 271.402667-135.253333 286.421333-286.421333H789.333333a32 32 0 0 1 0-64h41.088c-15.018667-151.189333-135.253333-271.402667-286.421333-286.421334V277.333333a32 32 0 0 1-64 0v-41.088c-151.189333 15.018667-271.402667 135.253333-286.421333 286.421334H234.666667a32 32 0 0 1 0 64H193.578667c15.018667 151.189333 135.253333 271.402667 286.421333 286.421333zM512 938.666667c-212.074667 0-384-171.925333-384-384S299.925333 170.666667 512 170.666667s384 171.925333 384 384-171.925333 384-384 384z m22.613333-361.386667a32 32 0 0 1-45.226666-45.226667l160-160a32 32 0 0 1 45.226666 45.226667l-160 160zM384 128a32 32 0 0 1 0-64h256a32 32 0 0 1 0 64H384zM821.333333 522.666667v64-64z" fill="#000000" p-id="14549"></path></svg>