<svg class="icon" style="width: 1em;height: 1em;vertical-align: middle;fill: currentColor;overflow: hidden;" viewBox="0 0 1024 1024" version="1.1" xmlns="http://www.w3.org/2000/svg" p-id="3377"><path d="M786.5 174H63.4C28.4 174 0 202.4 0 237.4v723.1c0 35 28.4 63.4 63.4 63.4H804c4.8 0 9.5-0.9 13.8-2.4 1-0.3 1.9-0.7 2.9-0.9 16.8-4.7 29.1-20.1 29.1-38.4V237.4c0.1-35-28.3-63.4-63.3-63.4zM80 880.7V317.4c0-35 28.4-63.4 63.4-63.4h563.2c35 0 63.4 28.4 63.4 63.4v580c0 25.7-20.9 46.6-46.6 46.6h-580c-35 0-63.4-28.3-63.4-63.3zM1002 0H446c-22.1 0-40 17.9-40 40s17.9 40 40 40h476c12.2 0 22 9.8 22 22v400.1c0 22.1 17.9 39.9 39.9 39.9h0.1c22.1 0 39.9-17.9 39.9-39.9V22c0.1-12.1-9.7-22-21.9-22z" p-id="3378"></path></svg>