<svg viewBox="0 0 1024 1024" version="1.1" xmlns="http://www.w3.org/2000/svg"><path d="M122.88 165.888h778.24c-9.216 0-16.384-7.168-16.384-16.384v713.728c0-9.216 7.168-16.384 16.384-16.384H122.88c9.216 0 16.384 7.168 16.384 16.384V150.016c0 8.192-6.656 15.872-16.384 15.872z m-32.768 684.544c0 26.112 20.992 47.104 47.104 47.104h750.08c26.112 0 47.104-20.992 47.104-47.104V162.304c0-26.112-20.992-47.104-47.104-47.104H137.216c-26.112 0-47.104 20.992-47.104 47.104v688.128zM336.384 651.264H243.2V344.576h91.648c92.672 2.048 140.288 53.248 142.336 154.112 1.024 103.424-46.08 154.624-140.8 152.576z m1.536-257.536h-43.008v211.456h44.544c59.392 2.048 88.064-33.28 87.552-106.496 0-70.144-29.696-104.96-89.088-104.96zM517.12 344.576h51.712v59.392H517.12V344.576z m0 78.848h51.712v227.84H517.12V423.424zM748.032 423.424h53.248l-81.408 227.84h-43.008l-76.8-227.84h53.248l46.08 162.816 48.64-162.816z"></path></svg>
