<svg viewBox="0 0 1024 1024" version="1.1" xmlns="http://www.w3.org/2000/svg"><path d="M787.692308 157.538462a78.769231 78.769231 0 0 1 78.76923 78.76923v551.384616a78.769231 78.769231 0 0 1-78.76923 78.76923H236.307692a78.769231 78.769231 0 0 1-78.76923-78.76923V236.307692a78.769231 78.769231 0 0 1 78.76923-78.76923h551.384616z m0 31.507692H236.307692a47.261538 47.261538 0 0 0-47.02523 42.417231L189.046154 236.307692v551.384616a47.261538 47.261538 0 0 0 42.417231 47.02523L236.307692 834.953846h551.384616a47.261538 47.261538 0 0 0 47.02523-42.417231L834.953846 787.692308V236.307692a47.261538 47.261538 0 0 0-42.417231-47.02523L787.692308 189.046154zM365.883077 417.358769l2.481231 2.008616 143.832615 143.832615 143.675077-143.675077a15.753846 15.753846 0 0 1 19.810462-2.008615l2.48123 2.008615a15.753846 15.753846 0 0 1 2.008616 19.810462l-2.008616 2.48123-154.820923 154.781539a15.753846 15.753846 0 0 1-19.810461 2.048l-2.481231-2.008616-154.978462-154.978461a15.753846 15.753846 0 0 1 19.810462-24.300308z"></path></svg>