<svg viewBox="0 0 1024 1024" version="1.1" xmlns="http://www.w3.org/2000/svg"><path d="M213.333333 160c-4.821333 0-9.472 0.64-13.824 1.792a32 32 0 0 1-16.554666-61.824c9.728-2.56 19.925333-3.968 30.378666-3.968h33.194667a32 32 0 0 1 0 64H213.333333zM347.264 128a32 32 0 0 1 32-32h66.346667a32 32 0 1 1 0 64H379.306667a32 32 0 0 1-32-32z m199.125333 0a32 32 0 0 1 32-32h66.346667a32 32 0 0 1 0 64h-66.346667a32 32 0 0 1-32-32z m199.082667 0a32 32 0 0 1 32-32H810.666667c10.453333 0 20.650667 1.365333 30.378666 3.968a32 32 0 1 1-16.554666 61.866667A53.418667 53.418667 0 0 0 810.666667 160h-33.194667a32 32 0 0 1-32-32z m-606.293333 32.341333a32 32 0 0 1 22.613333 39.168A53.461333 53.461333 0 0 0 160 213.333333v33.194667a32 32 0 0 1-64 0V213.333333c0-10.453333 1.365333-20.650667 3.968-30.378666a32 32 0 0 1 39.168-22.613334z m745.685333 0a32 32 0 0 1 39.168 22.613334c2.56 9.728 3.968 19.925333 3.968 30.378666v33.194667a32 32 0 0 1-64 0V213.333333c0-4.821333-0.64-9.472-1.792-13.824a32 32 0 0 1 22.613333-39.168zM128 347.221333a32 32 0 0 1 32 32v66.389334a32 32 0 1 1-64 0V379.306667a32 32 0 0 1 32-32z m768 0a32 32 0 0 1 32 32v66.389334a32 32 0 1 1-64 0V379.306667a32 32 0 0 1 32-32zM128 546.432a32 32 0 0 1 32 32v66.346667a32 32 0 0 1-64 0v-66.346667a32 32 0 0 1 32-32z m768 0a32 32 0 0 1 32 32v66.346667a32 32 0 0 1-64 0v-66.346667a32 32 0 0 1 32-32z m0 199.082667a32 32 0 0 1 32 32V810.666667c0 10.453333-1.365333 20.650667-3.968 30.378666a32 32 0 1 1-61.866667-16.554666c1.194667-4.352 1.834667-8.96 1.834667-13.824v-33.194667a32 32 0 0 1 32-32z m-768 0a32 32 0 0 1 32 32V810.666667c0 4.821333 0.64 9.472 1.792 13.824a32 32 0 0 1-61.824 16.512A117.461333 117.461333 0 0 1 96 810.666667v-33.194667a32 32 0 0 1 32-32z m32.341333 139.392a32 32 0 0 1 39.168-22.656c4.352 1.152 8.96 1.792 13.824 1.792h33.194667a32 32 0 0 1 0 64H213.333333c-10.453333 0-20.650667-1.365333-30.378666-3.968a32 32 0 0 1-22.613334-39.168z m703.317334 0a32 32 0 0 1-22.613334 39.168c-9.728 2.56-19.925333 3.968-30.378666 3.968h-33.194667a32 32 0 0 1 0-64H810.666667c4.821333 0 9.472-0.64 13.824-1.792a32 32 0 0 1 39.168 22.613333zM347.306667 896a32 32 0 0 1 32-32h66.346666a32 32 0 1 1 0 64H379.306667a32 32 0 0 1-32-32z m199.125333 0a32 32 0 0 1 32-32h66.346667a32 32 0 0 1 0 64h-66.346667a32 32 0 0 1-32-32z" fill="#53535A"></path><path d="M96 810.666667A117.333333 117.333333 0 0 0 213.333333 928h597.333334A117.333333 117.333333 0 0 0 928 810.666667v-256a32 32 0 0 0-32-32H128a32 32 0 0 0-32 32v256zM213.333333 864c-29.44 0-53.333333-23.893333-53.333333-53.333333v-224h704V810.666667c0 29.44-23.893333 53.333333-53.333333 53.333333H213.333333z" fill="#53535A"></path></svg>