<svg viewBox="0 0 1024 1024" version="1.1" xmlns="http://www.w3.org/2000/svg"><path d="M789.333333 170.666667a64 64 0 0 1 64 64v554.666666a64 64 0 0 1-64 64H234.666667a64 64 0 0 1-64-64V234.666667a64 64 0 0 1 64-64h554.666666zM341.333333 693.333333h-106.666666V789.333333h106.666666v-96z m448 0H405.333333V789.333333h384v-96zM341.333333 533.333333h-106.666666v96h106.666666V533.333333z m448 0H405.333333v96h384V533.333333z m-448-160h-106.666666V469.333333h106.666666v-96z m448 0H405.333333V469.333333h384v-96z"></path></svg>
