<svg class="icon" style="width: 1em;height: 1em;vertical-align: middle;fill: currentColor;overflow: hidden;" viewBox="0 0 1024 1024" version="1.1" xmlns="http://www.w3.org/2000/svg" p-id="19224"><path d="M128 170.666667h85.333333v256h170.666667V170.666667h85.333333v597.333333H384v-256H213.333333v256H128V170.666667m768 597.333333h-256a85.333333 85.333333 0 0 1-85.333333-85.333333c0-22.613333 8.533333-42.666667 23.04-58.026667l207.786666-223.146667c15.786667-15.36 25.173333-36.693333 25.173334-60.16a85.333333 85.333333 0 0 0-85.333334-85.333333 85.333333 85.333333 0 0 0-85.333333 85.333333h-85.333333a170.666667 170.666667 0 0 1 170.666666-170.666666 170.666667 170.666667 0 0 1 170.666667 170.666666c0 46.933333-19.2 89.6-49.92 120.746667L640 682.666667h256v85.333333z" fill="" p-id="19225"></path></svg>