<svg viewBox="0 0 1024 1024" version="1.1" xmlns="http://www.w3.org/2000/svg"><path d="M128 170.666667h85.333333v256h170.666667V170.666667h85.333333v597.333333H384v-256H213.333333v256H128V170.666667m512 0h170.666667a85.333333 85.333333 0 0 1 85.333333 85.333333v426.666667a85.333333 85.333333 0 0 1-85.333333 85.333333h-170.666667a85.333333 85.333333 0 0 1-85.333333-85.333333v-42.666667h85.333333v42.666667h170.666667v-170.666667h-170.666667v-85.333333h170.666667V256h-170.666667v42.666667h-85.333333V256a85.333333 85.333333 0 0 1 85.333333-85.333333z" fill=""></path></svg>