<svg class="icon" style="width: 1em;height: 1em;vertical-align: middle;fill: currentColor;overflow: hidden;" viewBox="0 0 1024 1024" version="1.1" xmlns="http://www.w3.org/2000/svg" p-id="19284"><path d="M128 170.666667h85.333333v256h170.666667V170.666667h85.333333v597.333333H384v-256H213.333333v256H128V170.666667m512 0h213.333333v85.333333h-213.333333v170.666667h85.333333a170.666667 170.666667 0 0 1 170.666667 170.666666 170.666667 170.666667 0 0 1-170.666667 170.666667h-85.333333a85.333333 85.333333 0 0 1-85.333333-85.333333v-42.666667h85.333333v42.666667h85.333333a85.333333 85.333333 0 0 0 85.333334-85.333334 85.333333 85.333333 0 0 0-85.333334-85.333333h-85.333333a85.333333 85.333333 0 0 1-85.333333-85.333333V256a85.333333 85.333333 0 0 1 85.333333-85.333333z" fill="" p-id="19285"></path></svg>