<svg viewBox="0 0 1024 1024" version="1.1" xmlns="http://www.w3.org/2000/svg"><path d="M246.528 96H810.666667A117.333333 117.333333 0 0 1 928 213.333333v256a32 32 0 0 1-32 32H128a32 32 0 0 1-32-32V213.333333A117.333333 117.333333 0 0 1 213.333333 96h33.194667zM160 246.528V437.333333h704V213.333333v-1.792A53.333333 53.333333 0 0 0 810.666667 160H213.333333c-29.44 0-53.333333 23.893333-53.333333 53.333333v33.194667z m0 331.861333a32 32 0 1 0-64 0v66.346667a32 32 0 0 0 64 0v-66.346667z m768 0a32 32 0 1 0-64 0v66.346667a32 32 0 0 0 64 0v-66.346667z m0 199.082667a32 32 0 0 0-64 0V810.666667c0 4.821333-0.64 9.472-1.792 13.824a32 32 0 1 0 61.824 16.512c2.56-9.685333 3.968-19.882667 3.968-30.336v-33.194667z m-768 0a32 32 0 0 0-64 0V810.666667c0 10.453333 1.365333 20.650667 3.968 30.378666a32 32 0 1 0 61.866667-16.554666A53.418667 53.418667 0 0 1 160 810.666667v-33.194667z m39.509333 84.736a32 32 0 1 0-16.554666 61.824c9.728 2.56 19.925333 3.968 30.378666 3.968h33.194667a32 32 0 0 0 0-64H213.333333c-4.821333 0-9.472-0.64-13.824-1.792z m641.493334 61.824a32 32 0 1 0-16.512-61.866667 53.461333 53.461333 0 0 1-13.824 1.834667h-33.194667a32 32 0 0 0 0 64H810.666667c10.453333 0 20.650667-1.365333 30.378666-3.968zM379.306667 864a32 32 0 0 0 0 64h66.346666a32 32 0 1 0 0-64H379.306667z m199.125333 0a32 32 0 1 0 0 64h66.346667a32 32 0 0 0 0-64h-66.346667z"></path></svg>