<svg class="icon" style="width: 1em;height: 1em;vertical-align: middle;fill: currentColor;overflow: hidden; transform: rotateY(180deg);" viewBox="0 0 1024 1024" version="1.1" xmlns="http://www.w3.org/2000/svg" p-id="11580"><path d="M192 1024h640c105.984 0 192-85.952 192-192V192c0-106.048-86.016-192-192-192H192a192 192 0 0 0-192 192v640a192 192 0 0 0 192 192z m-64-192V384h512v512H192a64 64 0 0 1-64-64z m704 64h-128V384h192v448c0 35.392-28.608 64-64 64zM192 128h640a64 64 0 0 1 64 64v128H128V192c0-35.328 28.672-64 64-64z" fill="" p-id="11581"></path></svg>