<svg class="icon" style="width: 1em;height: 1em;vertical-align: middle;fill: currentColor;overflow: hidden;" viewBox="0 0 1024 1024" version="1.1" xmlns="http://www.w3.org/2000/svg" p-id="16448"><path d="M236.171396 785.436626l717.127867 0 0 43.73099-717.127867 0 0-43.73099ZM956.880835 832.749188 232.589824 832.749188l0-50.894134 724.291011 0L956.880835 832.749188zM239.752967 825.586045l709.964724 0 0-36.567847L239.752967 789.018198 239.752967 825.586045zM236.171396 588.645634l717.127867 0 0 43.732014-717.127867 0 0-43.732014ZM956.880835 635.95922 232.589824 635.95922l0-50.895157 724.291011 0L956.880835 635.95922zM239.752967 628.796076l709.964724 0 0-36.56887L239.752967 592.227206 239.752967 628.796076zM236.171396 391.852596l717.127867 0 0 43.73099-717.127867 0 0-43.73099ZM956.880835 439.166181 232.589824 439.166181l0-50.894134 724.291011 0L956.880835 439.166181zM239.752967 432.003038l709.964724 0 0-36.567847L239.752967 395.435191 239.752967 432.003038zM236.171396 195.060581l717.127867 0 0 43.732014-717.127867 0 0-43.732014ZM956.880835 242.374166 232.589824 242.374166l0-50.895157 724.291011 0L956.880835 242.374166zM239.752967 235.211023l709.964724 0 0-36.56887L239.752967 198.642153 239.752967 235.211023zM70.971913 785.436626l103.509469 0 0 43.73099-103.509469 0 0-43.73099ZM178.063977 832.749188 67.390341 832.749188l0-50.894134 110.672612 0L178.062953 832.749188zM74.553485 825.586045l96.346325 0 0-36.567847L74.553485 789.018198 74.553485 825.586045zM70.971913 588.645634l103.509469 0 0 43.732014-103.509469 0 0-43.732014ZM178.063977 635.95922 67.390341 635.95922l0-50.895157 110.672612 0L178.062953 635.95922zM74.553485 628.796076l96.346325 0 0-36.56887L74.553485 592.227206 74.553485 628.796076zM70.971913 391.852596l103.509469 0 0 43.73099-103.509469 0 0-43.73099ZM178.063977 439.166181 67.390341 439.166181l0-50.894134 110.672612 0L178.062953 439.166181zM74.553485 432.003038l96.346325 0 0-36.567847L74.553485 395.435191 74.553485 432.003038zM70.971913 195.060581l103.509469 0 0 43.732014-103.509469 0 0-43.732014ZM178.063977 242.374166 67.390341 242.374166l0-50.895157 110.672612 0L178.062953 242.374166zM74.553485 235.211023l96.346325 0 0-36.56887L74.553485 198.642153 74.553485 235.211023z" p-id="16449"></path></svg>