<svg viewBox="0 0 1024 1024" version="1.1" xmlns="http://www.w3.org/2000/svg"><path d="M670.293333 268.373333l-226.133333 226.133334-90.453333-90.453334a42.666667 42.666667 0 1 0-60.16 60.16l120.746666 120.746667a42.666667 42.666667 0 0 0 60.16 0l256-256a42.666667 42.666667 0 1 0-60.16-60.586667zM810.666667 85.333333H213.333333a128 128 0 0 0-128 128v426.666667a128 128 0 0 0 128 128h494.506667l157.866667 158.293333A42.666667 42.666667 0 0 0 896 938.666667a35.84 35.84 0 0 0 16.213333-3.413334A42.666667 42.666667 0 0 0 938.666667 896V213.333333a128 128 0 0 0-128-128z m42.666666 707.84l-97.706666-98.133333A42.666667 42.666667 0 0 0 725.333333 682.666667H213.333333a42.666667 42.666667 0 0 1-42.666666-42.666667V213.333333a42.666667 42.666667 0 0 1 42.666666-42.666666h597.333334a42.666667 42.666667 0 0 1 42.666666 42.666666v579.84z"></path></svg>