<svg viewBox="0 0 1024 1024" version="1.1" xmlns="http://www.w3.org/2000/svg"><path d="M792.156166 161.67624l-562.578955 0c-38.692231 0-70.321602 31.654954-70.321602 70.321602l0 632.927163 140.643204-140.618645 492.25633 0c38.692231 0 70.322625-31.657001 70.322625-70.374814l0-421.933705C862.478791 193.331193 830.848397 161.67624 792.156166 161.67624M721.887776 583.635527l-421.98794 0 0-70.322625 421.98794 0L721.887776 583.635527zM721.887776 478.177684l-421.98794 0 0-70.322625 421.98794 0L721.887776 478.177684zM721.887776 372.667651l-421.98794 0 0-70.321602 421.98794 0L721.887776 372.667651z"></path></svg>