<svg class="icon" style="width: 1em;height: 1em;vertical-align: middle;fill: currentColor;overflow: hidden;" viewBox="0 0 1024 1024" version="1.1" xmlns="http://www.w3.org/2000/svg" p-id="3110"><path d="M767.125333 267.776c62.250667 49.984 121.92 119.253333 178.944 207.786667a106.666667 106.666667 0 0 1 0 115.541333C815.146667 794.368 670.442667 896 512 896c-158.442667 0-303.146667-101.632-434.069333-304.896a106.666667 106.666667 0 0 1 0-115.541333c57.024-88.533333 116.693333-157.802667 178.944-207.786667l-25.856-32.32a32 32 0 0 1 49.962666-39.978667l28.202667 35.242667c54.997333-33.92 111.936-53.482667 170.816-58.666667V128a32 32 0 0 1 64 0v44.074667c58.88 5.162667 115.84 24.725333 170.816 58.645333l28.202667-35.242667a32 32 0 1 1 49.962666 39.978667l-25.856 32.32zM512 832c133.482667 0 260.032-88.896 380.266667-275.562667a42.666667 42.666667 0 0 0 0-46.208C772.053333 323.562667 645.482667 234.666667 512 234.666667S251.968 323.562667 131.733333 510.229333a42.666667 42.666667 0 0 0 0 46.208C251.946667 743.104 378.517333 832 512 832z m0-85.333333c-117.824 0-213.333333-95.509333-213.333333-213.333334s95.509333-213.333333 213.333333-213.333333 213.333333 95.509333 213.333333 213.333333-95.509333 213.333333-213.333333 213.333334z m0-64a149.333333 149.333333 0 1 0 0-298.666667 149.333333 149.333333 0 0 0 0 298.666667z" fill="#000000" p-id="3111"></path></svg>