<svg viewBox="0 0 1024 1024" version="1.1" xmlns="http://www.w3.org/2000/svg"><path d="M842.792 467.225H491.827l-7.825 14.885h341.852c32.927 0 59.632 22.226 59.632 49.634v11.63c0 27.4-26.712 49.633-59.632 49.633H425.705l-7.825 14.878h424.912a62.958 62.958 0 0 0 62.958-62.95v-14.752a62.958 62.958 0 0 0-62.958-62.958z m-533.13 125.782l-7.826 14.878H402.98l7.82-14.878z m159.44-110.897l7.826-14.885H375.784l-7.826 14.885zM198.814 607.885h88.123l7.818-14.878h-78.989c-4.809 0-9.457-0.527-13.936-1.42l-8.423 16.024c1.786 0.148 3.586 0.274 5.407 0.274z m-42.687-64.512v-11.63c0-27.407 26.698-49.633 59.64-49.633h28.715l7.826-14.885h-53.494a62.958 62.958 0 0 0-62.958 62.958v14.751c0 28.168 18.514 52.003 44.03 60.047l9.098-17.304c-19.47-8.17-32.857-24.918-32.857-44.304zM353.06 482.11l7.825-14.885h-93.677l-7.826 14.885z"></path><path d="M603.519 482.11H484.002L425.705 593h119.518z m-388.68 0c-32.942 0-59.64 22.226-59.64 49.627v11.63c0 19.638 13.74 36.562 33.624 44.613l55.659-105.87h-29.644z m44.542 0L201.74 591.762c4.219 0.781 8.592 1.238 13.1 1.238h79.923l58.304-110.89H259.38z m108.577 0L309.662 593h101.144l58.296-110.89z"></path></svg>
