<svg style="width: 1em;height: 1em;vertical-align: middle;fill: currentColor;overflow: hidden;" viewBox="0 0 1024 1024" version="1.1" xmlns="http://www.w3.org/2000/svg"><path d="M256 213.333h512V128H256v85.333zM213.333 384V256H128v128h85.333z m597.334-128v128H896V256h-85.333z m0 128v234.667H896V384h-85.333z m0 234.667V768H896V618.667h-85.333zM213.333 768V618.667H128V768h85.333z m0-149.333V384H128v234.667h85.333z m640-42.667H512v85.333h341.333V576zM512 576H170.667v85.333H512V576z m341.333-234.667H512v85.334h341.333v-85.334z m-341.333 0H170.667v85.334H512v-85.334zM256 896h256v-85.333H256V896z m256 0h256v-85.333H512V896z m-42.667-512v234.667h85.334V384h-85.334z m0 234.667v234.666h85.334V618.667h-85.334zM128 768a128 128 0 0 0 128 128v-85.333A42.667 42.667 0 0 1 213.333 768H128z m682.667 0A42.667 42.667 0 0 1 768 810.667V896a128 128 0 0 0 128-128h-85.333zM768 213.333A42.667 42.667 0 0 1 810.667 256H896a128 128 0 0 0-128-128v85.333zM256 128a128 128 0 0 0-128 128h85.333A42.667 42.667 0 0 1 256 213.333V128z"></path></svg>
