<svg class="icon" style="width: 1em;height: 1em;vertical-align: middle;fill: currentColor;overflow: hidden;" viewBox="0 0 1024 1024" version="1.1" xmlns="http://www.w3.org/2000/svg" p-id="11800"><path d="M90.56 441.344h161.328v18.232H90.56zM803.872 441.344h165.344v18.232h-165.344zM90.56 630.264h161.328v18.224H90.56zM803.872 630.264h165.344v18.224h-165.344z" fill="#070001" p-id="11801"></path><path d="M725.424 360.504H334.36c-24.848 0-44.992 18.52-44.992 41.376v286.072c0 22.856 20.144 41.384 44.992 41.384h391.064c24.84 0 44.984-18.52 44.984-41.384V401.88c0-22.848-20.144-41.376-44.984-41.376z m20.936 309.784c0 20.024-18.128 36.264-40.504 36.264H353.904c-22.36 0-40.496-16.24-40.496-36.264V419.552c0-20.032 18.128-36.264 40.496-36.264h351.96c22.376 0 40.504 16.232 40.504 36.264v250.736z" fill="#070001" p-id="11802"></path><path d="M447.976 434.184h37.744V655.92h-37.744zM574.064 434.184h37.736V655.92h-37.736z" fill="#070001" p-id="11803"></path></svg>