<svg width="1024" height="1024" xmlns="http://www.w3.org/2000/svg" p-id="3588" version="1.1" class="icon">

        <path stroke="null" id="svg_1" p-id="3589" d="m710.91,169.4944c4.28,0 7.9,4.44587 7.9,9.70702l0,638.61265c0,5.33759 -3.54,9.68155 -7.9,9.68155l-397.82,0c-4.28,0 -7.9,-4.44587 -7.9,-9.70702l0,-638.61265c0,-5.33759 3.54,-9.68155 7.9,-9.68155l397.82,0m0,-40.76441l-397.82,0c-22.05,0 -39.9,22.58603 -39.9,50.44595l0,638.61265c0,27.6561 17.87,50.47143 39.9,50.47143l397.81,0c22.05,0 39.9,-22.58603 39.9,-50.44595l0,-638.61265c0.01,-27.6561 -17.86,-50.47143 -39.89,-50.47143zm-198.88,136.91745c3.51,0 7.02,1.70701 9.64,5.05733l77.99,99.3505c2.58,3.28663 4.03,7.74524 4.02,12.38219c-0.01,4.64969 -1.47,9.09556 -4.06,12.36945c-5.37,6.78982 -14.04,6.8153 -19.43,0.05096l-68.21,-86.89188l-68.21,86.89188a13.709,17.46373 0 0 1 -19.44,-0.05096c-5.37,-6.84078 -5.3,-18.07647 -0.04,-24.7389l77.99,-99.37598c2.56,-3.27389 6.04,-5.12103 9.67,-5.12103l0.08,0.07643zm0,465.70787c3.51,0 7.02,-1.70701 9.64,-5.05733l77.99,-99.3505c2.58,-3.28663 4.03,-7.74524 4.02,-12.38219c-0.01,-4.64969 -1.47,-9.09556 -4.06,-12.36945c-5.37,-6.78982 -14.04,-6.8153 -19.43,-0.05096l-68.21,86.89188l-68.21,-86.89188a13.709,17.46373 0 0 0 -19.44,0.05096c-5.37,6.84078 -5.3,18.07647 -0.04,24.7389l77.99,99.37598c2.56,3.27389 6.04,5.12103 9.67,5.12103l0.08,-0.07643z"/>

</svg>