<svg class="icon" style="width: 1em;height: 1em;vertical-align: middle;fill: currentColor;overflow: hidden;" viewBox="0 0 1024 1024" version="1.1" xmlns="http://www.w3.org/2000/svg" p-id="13789"><path d="M415.324 116.492l-246.088 0c-29.124 0-52.732 23.61-52.732 52.733l0 246.088c0 29.122 23.609 52.733 52.732 52.733l246.088 0c29.123 0 52.732-23.612 52.732-52.733l0-246.088c0.001-29.124-23.609-52.733-52.732-52.733zM402.14 314.239l-87.888 0 0 87.89-43.944 0 0-87.89-87.887 0 0-43.944 87.888 0 0-87.887 43.945 0 0 87.888 87.889 0 0 43.943zM854.766 116.492l-246.088 0c-29.123 0-52.732 23.61-52.732 52.733l0 246.088c0 29.122 23.609 52.733 52.732 52.733l246.087 0c29.124 0 52.733-23.612 52.733-52.733l0-246.088c0.001-29.124-23.608-52.733-52.733-52.733zM841.583 314.239l-219.723 0 0-43.944 219.723 0 0 43.944zM415.324 555.936l-246.088 0c-29.124 0-52.732 23.607-52.732 52.732l0 246.086c0 29.125 23.609 52.732 52.732 52.732l246.088 0c29.123 0 52.732-23.608 52.732-52.732l0-246.086c0.001-29.126-23.609-52.732-52.732-52.732zM385.498 793.858l-31.072 31.074-62.147-62.147-62.147 62.147-31.072-31.074 62.147-62.147-62.147-62.147 31.072-31.073 62.147 62.147 62.147-62.147 31.072 31.073-62.147 62.147 62.147 62.147zM854.766 555.936l-246.088 0c-29.123 0-52.732 23.607-52.732 52.732l0 246.086c0 29.125 23.609 52.732 52.732 52.732l246.087 0c29.124 0 52.733-23.608 52.733-52.732l0-246.086c0.001-29.126-23.608-52.732-52.733-52.732zM819.613 797.628l-175.779 0 0-43.944 175.779 0 0 43.944zM819.613 709.738l-175.779 0 0-43.943 175.779 0 0 43.943z" fill="#272636" p-id="13790"></path></svg>