<svg class="icon" style="width: 1em;height: 1em;vertical-align: middle;fill: currentColor;overflow: hidden;" viewBox="0 0 1024 1024" version="1.1" xmlns="http://www.w3.org/2000/svg" p-id="17040"><path d="M864 416c-41.6 0-76.8 25.6-89.6 64H604.8c-12.8-38.4-48-64-89.6-64s-76.8 25.6-89.6 64h-176c-12.8-38.4-48-64-89.6-64-54.4 0-96 41.6-96 96s41.6 96 96 96c41.6 0 76.8-25.6 89.6-64h169.6c12.8 38.4 48 64 89.6 64s76.8-25.6 89.6-64H768c12.8 38.4 48 64 89.6 64 54.4 0 96-41.6 96-96s-35.2-96-89.6-96zM160 544c-19.2 0-32-12.8-32-32s12.8-32 32-32 32 12.8 32 32-12.8 32-32 32z m352 0c-19.2 0-32-12.8-32-32s12.8-32 32-32 32 12.8 32 32-12.8 32-32 32z m352 0c-19.2 0-32-12.8-32-32s12.8-32 32-32 32 12.8 32 32-12.8 32-32 32z" fill="#333333" p-id="17041"></path></svg>