<svg viewBox="0 0 1024 1024" version="1.1"><path d="M856.187 65.711H167.215c-56.054 0-101.554 45.5-101.554 101.554v688.972c0 56.054 45.5 101.554 101.554 101.554h688.972c56.054 0 101.554-45.5 101.554-101.554V167.265c0-56.054-45.5-101.554-101.554-101.554z m-677.024 51.773H844.24c34.05 0 61.729 27.678 61.729 61.728v183.594H117.434V179.212c0-34.05 27.678-61.728 61.729-61.728z m217.046 297.094H634.66v219.934H396.209V414.578z m-51.773 219.834H117.434V414.578h227.002v219.834z m341.997-219.834H905.97v219.934H686.433V414.578z m157.807 491.44H179.163c-34.05 0-61.73-27.678-61.73-61.728V686.185h227.003v219.833h51.773V686.185H634.66v219.833h51.772V686.185H905.97V844.29c0 34.05-27.679 61.728-61.729 61.728z"></path></svg>