<svg class="icon" style="width: 1em;height: 1em;vertical-align: middle;fill: currentColor;overflow: hidden;" viewBox="0 0 1024 1024" version="1.1" xmlns="http://www.w3.org/2000/svg" p-id="2615"><path d="M853.333333 170.666667H170.666667a85.333333 85.333333 0 0 0-85.333334 85.333333v512a85.333333 85.333333 0 0 0 85.333334 85.333333h682.666666a85.333333 85.333333 0 0 0 85.333334-85.333333V256a85.333333 85.333333 0 0 0-85.333334-85.333333z m0 597.333333H170.666667V298.666667a42.666667 42.666667 0 0 1 42.666666-42.666667h213.333334a42.666667 42.666667 0 0 1 42.666666 42.666667v85.333333a42.666667 42.666667 0 0 0 42.666667 42.666667h341.333333z m0-426.666667h-298.666666V298.666667a42.666667 42.666667 0 0 1 42.666666-42.666667h213.333334a42.666667 42.666667 0 0 1 42.666666 42.666667z" p-id="2616"></path></svg>
