<svg class="icon" style="width: 1em;height: 1em;vertical-align: middle;fill: currentColor;overflow: hidden;" viewBox="0 0 1024 1024" version="1.1" xmlns="http://www.w3.org/2000/svg" p-id="26028"><path d="M853.418667 597.333333a42.666667 42.666667 0 0 1 4.992 85.034667l-4.992 0.298667H273.792l97.792 97.834666a42.666667 42.666667 0 0 1 3.541333 56.32l-3.541333 4.010667a42.666667 42.666667 0 0 1-56.32 3.541333l-4.010667-3.541333-170.666666-170.666667c-25.728-25.685333-9.386667-68.864 25.301333-72.576L170.752 597.333333h682.666667z m-144.64-417.706666l4.053333 3.541333 170.666667 170.666667c25.728 25.685333 9.386667 68.864-25.301334 72.576L853.333333 426.666667H170.666667a42.666667 42.666667 0 0 1-4.992-85.034667L170.666667 341.333333h579.626666l-97.792-97.834666a42.666667 42.666667 0 0 1-3.541333-56.32l3.541333-4.010667a42.666667 42.666667 0 0 1 56.32-3.541333z" fill="#000000" fill-opacity=".87" p-id="26029"></path></svg>