<svg class="icon" style="width: 1em;height: 1em;vertical-align: middle;fill: currentColor;overflow: hidden;" viewBox="0 0 1024 1024" version="1.1" xmlns="http://www.w3.org/2000/svg" p-id="5232"><path d="M880 624c16 0 32-12.8 32-32V464c0-16-12.8-32-32-32H336v-64h384c16 0 32-12.8 32-32V176c0-19.2-12.8-32-32-32H144c-16 0-32 12.8-32 32v160c0 19.2 12.8 32 32 32h128v480c0 16 12.8 32 32 32h576c16 0 32-12.8 32-32V720c0-16-12.8-32-32-32H336v-64h544z m-32-128v64H336v-64h512z m0 256v64H336v-64h512zM176 304v-96h512v96H176z" fill="#333333" p-id="5233"></path></svg>