<svg class="icon" style="width: 1em;height: 1em;vertical-align: middle;fill: currentColor;overflow: hidden;" viewBox="0 0 1024 1024" version="1.1" xmlns="http://www.w3.org/2000/svg" p-id="19727"><path d="M359.467726 156.09136h508.440914a50.844091 50.844091 0 0 1 0 101.688183h-508.440914a50.844091 50.844091 0 0 1 0-101.688183z m-203.376366 101.688183a50.844091 50.844091 0 1 1 50.844092-50.844091 50.844091 50.844091 0 0 1-50.844092 50.844091z m0 305.064548a50.844091 50.844091 0 1 1 50.844092-50.844091 50.844091 50.844091 0 0 1-50.844092 50.844091z m0 305.064549a50.844091 50.844091 0 1 1 50.844092-50.844092 50.844091 50.844091 0 0 1-50.844092 50.844092z m203.376366-406.752731h508.440914a50.844091 50.844091 0 0 1 0 101.688182h-508.440914a50.844091 50.844091 0 0 1 0-101.688182z m0 305.064548h508.440914a50.844091 50.844091 0 0 1 0 101.688183h-508.440914a50.844091 50.844091 0 0 1 0-101.688183z" fill="#666666" p-id="19728"></path></svg>