<svg class="icon" style="width: 1.05859375em;height: 1em;vertical-align: middle;fill: currentColor;overflow: hidden;" viewBox="0 0 1084 1024" version="1.1" xmlns="http://www.w3.org/2000/svg" p-id="4015"><path d="M90.352941 90.352941v843.294118h406.588235a45.176471 45.176471 0 0 1 0 90.352941H60.235294a60.235294 60.235294 0 0 1-60.235294-60.235294V60.235294a60.235294 60.235294 0 0 1 60.235294-60.235294h783.058824a60.235294 60.235294 0 0 1 60.235294 60.235294v135.529412a45.176471 45.176471 0 0 1-90.352941 0V90.352941H90.352941z m798.117647 627.621647V783.058824h117.880471c31.412706 0 57.916235 22.618353 61.831529 52.766117l15.570824 120.470588c4.276706 33.008941-19.968 63.126588-54.091294 67.252706-2.56 0.301176-5.150118 0.451765-7.740236 0.451765H664.696471C630.241882 1024 602.352941 997.044706 602.352941 963.764706c0-2.499765 0.150588-4.999529 0.481883-7.469177l15.570823-120.470588c3.915294-30.117647 30.418824-52.766118 61.831529-52.766117H798.117647v-65.084236a210.823529 210.823529 0 1 1 90.352941 0zM699.934118 933.647059h286.72l-7.830589-60.235294H707.764706l-7.800471 60.235294zM963.764706 512a120.470588 120.470588 0 1 0-240.941177 0 120.470588 120.470588 0 0 0 240.941177 0zM180.705882 557.176471a15.058824 15.058824 0 0 1 15.058824-15.058824h210.823529a15.058824 15.058824 0 0 1 15.058824 15.058824v60.235294a15.058824 15.058824 0 0 1-15.058824 15.058823h-210.823529a15.058824 15.058824 0 0 1-15.058824-15.058823v-60.235294z m286.117647-195.764706a15.058824 15.058824 0 0 1 15.058824 15.058823v60.235294a15.058824 15.058824 0 0 1-15.058824 15.058824h-271.058823a15.058824 15.058824 0 0 1-15.058824-15.058824v-60.235294a15.058824 15.058824 0 0 1 15.058824-15.058823h271.058823z m180.705883-180.705883a15.058824 15.058824 0 0 1 15.058823 15.058824v60.235294a15.058824 15.058824 0 0 1-15.058823 15.058824h-451.764706a15.058824 15.058824 0 0 1-15.058824-15.058824v-60.235294a15.058824 15.058824 0 0 1 15.058824-15.058824h451.764706z" fill="#2A2A2A" p-id="4016"></path></svg>